<?xml version="1.0" encoding="iso-8859-1"?>
<!-- Generator: Adobe Illustrator 19.0.0, SVG Export Plug-In . SVG Version: 6.00 Build 0)  -->
<svg version="1.1" id="Layer_1" xmlns="http://www.w3.org/2000/svg" xmlns:xlink="http://www.w3.org/1999/xlink" x="0px" y="0px"
	 viewBox="0 0 512 512" style="enable-background:new 0 0 512 512;" xml:space="preserve">
<g>
	<g>
		<path d="M308.923,215.385c-12.793,0-23.204,10.409-23.209,23.209c0,12.797,10.41,23.209,23.206,23.209h0.002
			c12.797,0,23.209-10.411,23.209-23.209S321.721,215.385,308.923,215.385z"/>
	</g>
</g>
<g>
	<g>
		<path d="M459.78,174.769c-9.598,0-17.407-7.809-17.407-17.407s7.809-17.407,17.407-17.407c28.794,0,52.22-23.426,52.22-52.22
			c0-35.193-28.631-63.824-63.824-63.824c-28.794,0-52.22,23.426-52.22,52.22c0,9.598-7.809,17.407-17.407,17.407
			s-17.407-7.809-17.407-17.407c0-41.591-33.837-75.428-75.428-75.428c-41.591,0-75.428,33.837-75.428,75.428
			c0,14.948,4.389,28.882,11.919,40.615h-0.315H0l162.461,162.461h-39.208c-54.389,0-98.637,44.249-98.637,98.637
			c0,54.388,44.249,98.637,98.637,98.637c35.077,0,65.914-18.42,83.406-46.079c26.746,48.195,78.16,80.892,137.077,80.892h87.033
			V309.162c7.112,3.117,14.959,4.86,23.209,4.86c20.657,0,36.687-9.087,46.358-26.279C508.295,273.596,512,254.291,512,226.989
			C512,198.195,488.574,174.769,459.78,174.769z M187.078,377.846c0,35.193-28.631,63.824-63.824,63.824
			c-35.193,0-63.824-28.631-63.824-63.824s28.631-63.824,63.824-63.824h63.824V377.846z M187.078,254.592L84.046,151.561h103.032
			V254.592z M395.956,476.483h-52.22c-67.187,0-121.846-54.66-121.846-121.846V151.561h63.824
			c60.787,0,110.242,49.454,110.242,110.242V476.483z M453.978,279.209c-12.797,0-23.209-10.411-23.209-23.209h-0.127
			c-3.058-77.304-66.889-139.252-144.928-139.252c-22.395,0-40.615-18.22-40.615-40.615s18.22-40.615,40.615-40.615
			c22.395,0,40.615,18.22,40.615,40.615c0,28.794,23.426,52.22,52.22,52.22c28.794,0,52.22-23.426,52.22-52.22
			c0-9.598,7.809-17.407,17.407-17.407c15.997,0,29.011,13.014,29.011,29.011c0,9.598-7.809,17.407-17.407,17.407
			c-28.794,0-52.22,23.426-52.22,52.22s23.426,52.22,52.22,52.22c9.598,0,17.407,7.809,17.407,17.407
			C477.187,279.209,462.09,279.209,453.978,279.209z"/>
	</g>
</g>
<g>
</g>
<g>
</g>
<g>
</g>
<g>
</g>
<g>
</g>
<g>
</g>
<g>
</g>
<g>
</g>
<g>
</g>
<g>
</g>
<g>
</g>
<g>
</g>
<g>
</g>
<g>
</g>
<g>
</g>
</svg>
