<svg version="1" xmlns="http://www.w3.org/2000/svg" width="933.333" height="933.333" viewBox="0 0 700.000000 700.000000"><path d="M378 1.6c-19.1 3.5-31.7 8.3-44.4 16.7-20.7 13.9-36.2 35.5-42.8 59.7-2 7.4-2.3 10.8-2.3 26 0 20.8 1.6 28.4 9.5 44.7 2.8 5.6 5 10.5 5 10.8 0 .3-68.1.5-151.2.5H.5l110.3 110.3c60.6 60.6 110.2 110.5 110.2 111 0 .4-14.5.7-32.2.7-41.8 0-52.7 1.7-74.8 11.4C76.3 410 48.3 443.2 37.8 484c-3.9 14.9-5 39.1-2.5 53.5 5.3 29.9 17.1 53 38.2 74 26.4 26.4 57.9 39.5 95 39.5 16 0 28.5-2 42.5-6.7 27.1-9.1 50.4-26.2 66.4-48.6 2.6-3.7 4.9-6.7 5.1-6.7.1 0 2.6 3.8 5.4 8.5 27.9 45.4 74.3 79.9 126.4 94.1 24.9 6.7 24.3 6.7 103 7.1l71.7.4v-138c0-76 .2-138.1.5-138.1.2 0 2.2.7 4.2 1.5 17.9 7 43.9 5.8 61.1-2.9 26.4-13.3 40.3-40.5 44.2-86.1 2.2-27.1.8-41-5.9-55-7.4-15.5-18.1-26.5-32.7-33.8-9.4-4.8-16.3-6.6-26.9-7.4-14.9-1-21.4-4.4-25.9-13.5-4.6-9.2-3.1-19.5 3.7-26.6 5.2-5.5 9.7-7.2 21.5-8.2 16-1.4 26.7-5.4 38.9-14.3 11.8-8.7 21.9-23.8 26-38.7 2.7-9.8 2.4-28.9-.6-40-6.2-23.2-21.8-43-43.1-54.8-3-1.7-9.8-4.5-15-6.3-8-2.6-11.5-3.2-22-3.7-10.5-.4-13.8-.1-20.8 1.6-20.5 5.2-37.2 18.1-46.6 36.1-4.7 9.1-6.5 15.6-8 29.3-1.1 9.4-1.9 12.6-4.1 16.3-6.9 11.8-22.9 14.8-34.3 6.4-5.2-3.8-9.2-11.7-9.2-17.9 0-31-15.1-62.4-39.4-81.6-17.5-13.9-38.2-21.3-61.1-21.9-7.1-.2-14.1-.2-15.5.1zm30.5 50.2c11 3.8 18.1 8.9 25.6 18.2 7.8 9.7 10.6 17.5 11.9 34.3 1.1 14.1 3 21.8 7.7 31.3 17.4 35.8 62 50.1 97.5 31.2 18.9-10 32.3-28.4 36.4-49.6.8-4 1.4-9.4 1.4-11.9 0-6.6 1.8-11.7 5.8-16.3 6.2-7.3 14.8-10.1 24.9-8 18.3 3.8 31.1 18.2 32.1 36.2.4 6.9.2 8.4-2.2 13.2-4.4 9-12.7 13.6-24.6 13.6-18.1 0-40.9 11.8-52.5 27.2-10.3 13.6-14.9 27.4-14.9 44.3.1 17.5 5.2 31.8 16.2 45.1 12.6 15.4 30.2 24 52.7 25.9 9.8.8 14.9 3 19.6 8.2 5.7 6.3 6.3 9.2 5.6 29.2-.9 26.3-5 42.6-13 50.9-5.2 5.4-8.3 6.6-17.2 6.6-9.6 0-17-2.9-23.2-9.1-6.5-6.5-8.3-11.8-9.9-28.3-1.9-19.3-4.6-32.8-9.8-48.5-9.9-29.6-24-52.8-46-75.4-17.5-17.9-33.6-29.7-55.1-40.1-25.9-12.7-47.8-18.2-79-20-25.8-1.5-34.1-4.5-46.5-17-8.7-8.6-12.2-14.7-15-25.6-4.9-19.1.3-37.8 14.4-52 11.5-11.5 22.9-16.2 39.6-16.3 7.9-.1 10.8.4 17.5 2.7zM256 277.5c0 38.8-.1 70.5-.3 70.5-.1 0-31.9-31.7-70.7-70.5L114.5 207H256v70.5zM405.1 208c36.8 3.7 69.8 20 95.3 47.1 18.4 19.6 30.4 42 37.4 69.9l2.6 10.5.3 157.8.3 157.7h-43.4c-38.5 0-44.7-.2-54.8-1.9-35.7-6.2-66-22-91.3-47.6-23.4-23.7-39.2-54.1-45.7-87.8-2.1-11.1-2.2-12.8-2.5-159l-.4-147.7h46c25.2 0 50.5.5 56.2 1zM256 474.4c0 26.7-.4 48.7-1.1 53.3-4.9 36.2-30.8 64.7-66.9 73.9-10.3 2.6-28.7 2.6-39 0-30.1-7.6-53.5-28.9-62.9-57.1-7.7-23.1-6-45.7 4.9-67.5 12.6-25 38.4-43.3 66.1-46.9 3.5-.5 27.2-.9 52.7-1l46.2-.1v45.4z"/><path d="M408.2 298.1c-6.2 3.1-11.1 8-14.8 14.9-2.9 5.4-2.7 21 .4 26.8 3.5 6.6 8.8 11.9 15 14.9 4.9 2.4 6.9 2.8 13.7 2.7 9.5 0 15.7-2.5 22.1-8.9 6.6-6.6 8.9-12.5 8.9-22.5 0-7.3-.4-9.2-2.7-13.6-3.4-6.5-11.4-13.7-17.5-15.8-2.6-.9-7.9-1.6-11.8-1.6-6 0-8.2.5-13.3 3.1z"/></svg>